<svg xmlns="http://www.w3.org/2000/svg" xmlns:xlink="http://www.w3.org/1999/xlink" zoomAndPan="magnify" viewBox="160 30 1180 1540" preserveAspectRatio="xMidYMid meet" version="1.0"><defs><clipPath id="e9cd486520"><path d="M 177.5 804 L 1322.75 804 L 1322.75 1456 L 177.5 1456 Z M 177.5 804 " clip-rule="nonzero"></path></clipPath></defs><g clip-path="url(#e9cd486520)"><path fill="#2e5bff" d="M 400.605469 804.328125 C 407.355469 804.324219 414.101562 804.3125 420.851562 804.296875 C 434.898438 804.285156 448.945312 804.308594 462.988281 804.355469 C 480.953125 804.40625 498.914062 804.375 516.875 804.316406 C 530.769531 804.28125 544.667969 804.292969 558.5625 804.316406 C 565.1875 804.324219 571.808594 804.316406 578.433594 804.292969 C 587.679688 804.269531 596.929688 804.3125 606.175781 804.359375 C 611.421875 804.371094 616.671875 804.375 622.078125 804.382812 C 636.824219 805.664062 647.214844 809.382812 660.664062 815.355469 C 665.78125 816.457031 670.902344 817.5625 676.179688 818.699219 C 721.296875 831.386719 757.132812 870.757812 789.074219 903.058594 C 795.488281 909.445312 795.488281 909.445312 802.027344 915.96875 C 813.609375 927.539062 825.160156 939.136719 836.695312 950.75 C 848.847656 962.976562 861.042969 975.15625 873.234375 987.347656 C 893.679688 1007.804688 914.097656 1028.289062 934.5 1048.792969 C 960.59375 1075.015625 986.726562 1101.191406 1012.878906 1127.351562 C 1035.488281 1149.976562 1058.085938 1172.625 1080.675781 1195.273438 C 1087.871094 1202.488281 1095.078125 1209.703125 1102.28125 1216.917969 C 1115.757812 1230.425781 1129.21875 1243.953125 1142.679688 1257.476562 C 1146.621094 1261.421875 1150.558594 1265.375 1154.625 1269.441406 C 1174.953125 1289.910156 1194.542969 1310.742188 1213.308594 1332.660156 C 1223.710938 1344.613281 1234.886719 1355.679688 1246.210938 1366.757812 C 1250.714844 1371.199219 1255.214844 1375.644531 1259.855469 1380.21875 C 1266.875 1387.113281 1273.90625 1394.003906 1280.945312 1400.882812 C 1287.847656 1407.632812 1294.71875 1414.417969 1301.589844 1421.207031 C 1307.6875 1427.175781 1307.6875 1427.175781 1313.90625 1433.273438 C 1322.75 1443.144531 1322.75 1443.144531 1322.75 1452.875 C 1272.050781 1453.441406 1221.34375 1453.871094 1170.636719 1454.132812 C 1147.089844 1454.261719 1123.535156 1454.433594 1099.984375 1454.710938 C 1077.191406 1454.976562 1054.40625 1455.117188 1031.613281 1455.183594 C 1022.980469 1455.226562 1014.347656 1455.3125 1005.71875 1455.449219 C 909.324219 1456.871094 839.789062 1436.867188 769.105469 1368.269531 C 758.988281 1358.222656 748.980469 1348.074219 738.972656 1337.921875 C 733.585938 1332.511719 728.199219 1327.101562 722.808594 1321.703125 C 708.773438 1307.613281 694.777344 1293.480469 680.792969 1279.339844 C 663.929688 1262.304688 647.011719 1245.324219 630.097656 1228.335938 C 604.542969 1202.644531 579.058594 1176.890625 553.558594 1151.148438 C 551.953125 1250.71875 550.347656 1350.289062 548.691406 1452.875 C 426.59375 1452.875 304.496094 1452.875 178.699219 1452.875 C 178.308594 1336.390625 178.308594 1336.390625 178.222656 1286.429688 C 178.164062 1252.449219 178.097656 1218.464844 177.964844 1184.488281 C 177.859375 1157.066406 177.800781 1129.644531 177.777344 1102.222656 C 177.757812 1091.804688 177.722656 1081.382812 177.667969 1070.960938 C 176.863281 905.121094 176.863281 905.121094 229.207031 850.332031 C 278.589844 803.617188 335.523438 804.125 400.605469 804.328125 Z M 400.605469 804.328125 " fill-opacity="1" fill-rule="nonzero"></path></g><path fill="#2e5bff" d="M 255.363281 46.570312 C 372.640625 46.570312 489.917969 46.570312 610.75 46.570312 C 611.050781 98.5625 611.351562 150.558594 611.660156 204.125 C 611.859375 228.613281 611.859375 228.613281 612.0625 253.597656 C 612.105469 266.648438 612.144531 279.699219 612.175781 292.75 C 612.214844 296.078125 612.25 299.40625 612.289062 302.832031 C 613.125 379.371094 597.332031 434.167969 543.679688 490.628906 C 534.652344 499.679688 525.589844 508.671875 516.464844 517.621094 C 511.574219 522.484375 506.6875 527.351562 501.804688 532.222656 C 491.628906 542.359375 481.425781 552.460938 471.191406 562.539062 C 458.175781 575.355469 445.214844 588.226562 432.273438 601.117188 C 419.785156 613.550781 407.273438 625.964844 394.753906 638.371094 C 392.425781 640.6875 390.09375 643 387.691406 645.386719 C 363.074219 669.785156 338.28125 693.691406 311.914062 716.195312 C 298.132812 728.15625 285.773438 741.445312 273.199219 754.636719 C 265.097656 761.957031 265.097656 761.957031 255.363281 761.957031 C 255.363281 525.878906 255.363281 289.800781 255.363281 46.570312 Z M 255.363281 46.570312 " fill-opacity="1" fill-rule="nonzero"></path><path fill="#2e5bff" d="M 776.261719 177.96875 C 792.417969 186.046875 800.1875 190.914062 812.445312 203.011719 C 815.65625 206.160156 818.871094 209.308594 822.183594 212.554688 C 825.65625 216.007812 829.128906 219.460938 832.707031 223.019531 C 836.40625 226.660156 840.105469 230.300781 843.917969 234.054688 C 856.160156 246.128906 868.363281 258.238281 880.566406 270.359375 C 884.75 274.507812 888.933594 278.652344 893.242188 282.925781 C 915.402344 304.90625 937.539062 326.917969 959.644531 348.953125 C 982.390625 371.609375 1005.234375 394.160156 1028.101562 416.6875 C 1045.75 434.109375 1063.316406 451.605469 1080.867188 469.125 C 1089.25 477.464844 1097.65625 485.773438 1106.097656 494.054688 C 1195.132812 581.53125 1195.132812 581.53125 1214.40625 640.296875 C 1214.40625 677.230469 1214.40625 714.167969 1214.40625 752.226562 C 1069.820312 752.226562 925.230469 752.226562 776.261719 752.226562 C 776.261719 562.71875 776.261719 373.214844 776.261719 177.96875 Z M 776.261719 177.96875 " fill-opacity="1" fill-rule="nonzero"></path></svg>